<svg version="1.1" id="Layer_1" xmlns="http://www.w3.org/2000/svg" xmlns:xlink="http://www.w3.org/1999/xlink" x="0px" y="0px"
	 width="100%" viewBox="0 0 1080 1080" enable-background="new 0 0 1080 1080" xml:space="preserve">
<path fill="#FFFFFF" opacity="1.000000" stroke="none" 
	d="
M635.000000,1081.000000 
	C424.857513,1081.000000 215.215057,1080.989624 5.572622,1081.085205 
	C1.958535,1081.086914 0.894676,1080.489014 0.895906,1076.573608 
	C1.008017,719.614807 1.009606,362.656006 0.882856,5.697251 
	C0.881377,1.532019 1.857056,0.895573 5.801726,0.896803 
	C362.593872,1.008025 719.386047,1.007719 1076.178223,0.899673 
	C1080.080933,0.898491 1081.121216,1.468958 1081.119629,5.677111 
	C1080.990112,362.469238 1080.989624,719.261414 1081.122314,1076.053589 
	C1081.124023,1080.426514 1080.037354,1081.104858 1075.947510,1081.101562 
	C929.131775,1080.980347 782.315857,1081.000000 635.000000,1081.000000 
z"/>
<path fill="#030303" opacity="1.000000" stroke="none" 
	d="
M449.007263,856.428162 
	C455.791321,855.979187 461.900299,858.490662 468.290405,859.376953 
	C470.422668,859.672668 470.030762,861.480286 470.190002,862.893127 
	C472.129333,880.097656 474.056824,897.303589 475.983826,914.509460 
	C476.089417,915.452332 476.163696,916.398682 476.280365,917.639221 
	C478.343597,917.001465 478.659363,915.451660 479.344910,914.281616 
	C487.830292,899.799194 496.383270,885.354980 504.690582,870.770874 
	C506.212891,868.098328 507.777954,867.354004 510.603119,868.073181 
	C514.467163,869.056763 518.360596,870.191711 522.303650,870.523804 
	C526.354736,870.864929 527.398560,872.865417 527.795044,876.495117 
	C530.741699,903.469177 533.852295,930.425415 536.898987,957.388550 
	C536.952576,957.862488 536.851013,958.353943 536.786865,959.415955 
	C530.707520,958.208984 524.771301,957.059692 518.849548,955.840149 
	C516.499390,955.356079 517.127869,953.317139 516.959656,951.772766 
	C514.911682,932.966919 512.888245,914.158447 510.824097,895.032043 
	C509.021912,895.880615 508.649414,897.411865 507.952759,898.599426 
	C499.123077,913.651855 490.260803,928.686340 481.611115,943.842041 
	C480.057251,946.564636 478.563446,947.554688 475.387756,946.924377 
	C461.322296,944.132568 461.435181,944.205139 460.038300,929.770508 
	C458.536255,914.249878 456.757507,898.755981 455.071442,882.988220 
	C453.031769,883.986511 452.679565,885.711609 451.899414,887.059937 
	C443.077179,902.307007 434.264893,917.560242 425.551514,932.869629 
	C424.254944,935.147705 423.179413,936.375061 420.187622,935.384033 
	C416.583984,934.190369 412.753632,933.528198 408.968903,933.078918 
	C405.410950,932.656616 405.903107,931.293396 407.268188,928.929138 
	C421.144226,904.896790 434.954559,880.826599 449.007263,856.428162 
z"/>
<path fill="#030303" opacity="1.000000" stroke="none" 
	d="
M214.358765,687.260376 
	C234.890686,678.571533 254.413574,684.333435 267.271667,703.498901 
	C274.847961,714.791565 281.261322,726.861328 288.320923,738.506897 
	C289.493774,740.441711 289.173889,741.252808 287.322510,742.335266 
	C264.668396,755.580322 242.037399,768.865479 219.463043,782.245911 
	C217.342926,783.502502 216.675369,782.710510 215.697479,781.016479 
	C208.972870,769.367004 201.631775,758.038025 195.510391,746.082947 
	C183.386978,722.405884 190.783783,699.806763 214.358765,687.260376 
z"/>
<path fill="#030303" opacity="1.000000" stroke="none" 
	d="
M972.217651,522.587891 
	C972.311096,531.207336 972.775208,539.383728 970.614502,547.390747 
	C965.128845,567.718506 948.570923,579.833191 928.089905,578.492432 
	C907.002991,577.112000 891.764099,562.970825 889.086914,541.871155 
	C887.194031,526.952881 888.384399,511.913239 887.895325,496.936066 
	C887.796021,493.894592 889.779663,494.391235 891.539001,494.370178 
	C902.534607,494.238434 913.530518,494.130981 924.526367,494.014069 
	C938.854187,493.861755 953.186890,493.874207 967.506531,493.446503 
	C971.425476,493.329407 972.195679,494.504303 972.095886,498.132996 
	C971.876221,506.122162 972.143555,514.124695 972.217651,522.587891 
z"/>
<path fill="#040404" opacity="1.000000" stroke="none" 
	d="
M824.550171,727.601440 
	C826.367920,730.887695 823.958679,731.159668 822.185425,731.789795 
	C814.410706,734.552734 808.167908,739.383789 803.396484,746.040588 
	C796.860901,755.158386 798.428711,763.189941 808.363159,770.238770 
	C808.360168,758.567749 814.024841,750.207336 823.003601,743.886292 
	C829.042419,739.634949 835.845520,737.495361 843.259094,738.366821 
	C859.313416,740.253906 871.949341,754.008118 871.718384,769.312134 
	C871.484497,784.807800 858.843933,800.767822 843.699707,801.179688 
	C843.721497,801.473145 843.634705,801.888733 843.796204,802.040833 
	C848.639709,806.601990 848.643555,806.597900 844.169312,811.935913 
	C837.424133,819.983276 837.413635,819.995667 829.440552,813.250549 
	C818.504211,803.998718 807.589661,794.721069 796.657166,785.464600 
	C793.595764,782.872620 790.743652,780.079285 788.331177,776.867126 
	C781.562805,767.854858 779.971436,758.086243 784.815735,747.785645 
	C791.211365,734.186340 801.342102,724.230957 815.080566,717.975708 
	C818.812012,716.276733 821.283630,716.461548 822.138184,721.168823 
	C822.517700,723.259094 823.596741,725.222290 824.550171,727.601440 
z"/>
<path fill="#040404" opacity="1.000000" stroke="none" 
	d="
M291.377808,791.390869 
	C305.745453,776.178894 324.150909,775.079590 338.450226,788.329712 
	C343.790466,793.278198 346.211517,797.959106 347.347626,805.553101 
	C348.599426,805.665894 349.088013,804.590454 349.564178,803.852539 
	C351.275055,801.201111 352.844971,801.247986 354.972626,803.498535 
	C358.133636,806.841919 364.392639,808.968750 364.521240,812.864990 
	C364.632721,816.243164 359.548401,819.847656 356.653259,823.261169 
	C341.255585,841.415405 325.773224,859.498169 310.466766,877.728821 
	C308.464630,880.113525 307.281403,880.333008 305.046936,878.173706 
	C301.584167,874.827576 295.520569,872.232788 294.815094,868.512512 
	C294.092560,864.702148 300.068634,861.164246 303.035797,857.448181 
	C306.235657,853.440674 309.637360,849.594360 313.458405,845.078064 
	C306.748596,844.687988 301.011749,843.170471 295.999420,839.414490 
	C280.059143,827.469727 278.082886,808.412170 291.377808,791.390869 
z"/>
<path fill="#040404" opacity="1.000000" stroke="none" 
	d="
M537.062622,121.986076 
	C555.547485,117.641281 572.031311,119.982613 586.665894,133.961472 
	C585.283447,134.976944 584.111694,135.671341 583.142151,136.581207 
	C580.349060,139.202377 578.064941,142.977234 574.777771,144.294266 
	C571.257874,145.704529 569.001831,140.956177 565.809387,139.455551 
	C555.436218,134.579636 541.645996,136.071899 533.428467,143.423843 
	C525.537415,150.483734 522.905029,162.910980 526.993958,173.801270 
	C532.532593,188.552643 553.451965,195.574554 566.500854,187.201660 
	C568.225647,186.094925 568.003662,184.830856 567.981018,183.416519 
	C567.882446,177.253326 567.826233,171.086349 567.538574,164.930847 
	C567.428650,162.578308 568.020081,161.671692 570.501099,161.712936 
	C574.326660,161.776550 578.175049,161.649094 581.981750,161.275986 
	C584.812805,160.998505 585.266418,162.243851 585.303711,164.671356 
	C585.446899,173.998795 585.715027,183.325348 586.053223,192.647995 
	C586.127075,194.684814 585.609436,196.022064 583.797852,197.138870 
	C566.558411,207.766861 548.414246,210.832245 529.622864,202.227783 
	C513.146790,194.683487 505.302734,180.851242 505.455292,162.998077 
	C505.610657,144.813065 514.486145,131.778320 531.056946,124.128716 
	C532.859558,123.296577 534.790466,122.742317 537.062622,121.986076 
z"/>
<path fill="#040404" opacity="1.000000" stroke="none" 
	d="
M228.465454,323.748840 
	C227.182709,301.757996 248.536499,285.169128 269.329651,291.840485 
	C293.387238,299.559265 302.101929,325.462219 287.005829,344.315277 
	C283.029236,349.281494 277.978882,352.551849 270.942993,354.080292 
	C278.545532,359.450378 285.363220,364.431152 292.370697,369.128815 
	C294.921509,370.838867 295.260956,372.106598 293.190033,374.441254 
	C289.924988,378.122162 288.272858,385.037323 284.108826,385.487213 
	C280.475250,385.879822 276.205902,380.756256 272.277069,377.985382 
	C253.671417,364.863556 235.155548,351.612457 216.429642,338.664917 
	C213.061478,336.336060 213.058517,334.715088 215.463791,331.934448 
	C217.303162,329.807983 219.069489,327.511169 220.333313,325.018860 
	C222.290909,321.158478 224.453827,321.558777 227.461517,324.126404 
	C227.817032,324.185730 228.229538,324.421265 228.229538,324.421265 
	C228.229538,324.421265 228.386414,323.972870 228.465454,323.748840 
z"/>
<path fill="#030303" opacity="1.000000" stroke="none" 
	d="
M779.686829,242.596619 
	C768.733215,262.541565 749.522766,268.302429 732.219116,257.103699 
	C726.113708,253.152344 723.146606,249.289917 720.356201,241.195160 
	C715.859070,248.544983 711.446960,255.308701 707.529114,262.347504 
	C705.570496,265.866486 703.954468,266.766754 700.521545,264.136780 
	C696.987976,261.429718 690.947388,259.940125 689.872803,256.653015 
	C688.786560,253.329926 693.585999,249.104706 695.875916,245.319733 
	C708.008667,225.266098 720.234070,205.268417 732.311890,185.181885 
	C733.869568,182.591309 735.117065,181.532974 737.809509,183.766296 
	C739.452087,185.128769 741.493408,186.006714 743.340576,187.127090 
	C749.346985,190.770233 749.344299,190.774643 746.935303,196.696411 
	C767.766418,192.085526 792.562500,215.758575 779.686829,242.596619 
z"/>
<path fill="#030303" opacity="1.000000" stroke="none" 
	d="
M783.513306,282.515594 
	C776.947815,289.338470 776.947815,289.338470 770.569824,283.136383 
	C763.464172,276.226685 763.478149,276.240204 770.501099,268.979736 
	C787.756470,251.140915 805.050110,233.338531 822.185608,215.385162 
	C824.626648,212.827530 826.153442,212.078461 828.639160,215.180511 
	C831.617310,218.897110 838.020386,221.518906 837.818726,225.553284 
	C837.642639,229.075287 832.159485,232.480255 828.756409,235.653046 
	C824.993652,239.161194 820.930054,242.346634 817.490112,246.448486 
	C825.456055,248.271835 831.761597,251.157516 837.050232,256.209137 
	C848.266663,266.922974 849.563660,280.479218 839.466553,292.215271 
	C831.006226,302.048828 821.596375,311.063263 812.675537,320.505188 
	C811.292297,321.969238 810.429688,321.876953 809.086121,320.489258 
	C806.075073,317.379333 803.023193,314.287323 799.757690,311.453339 
	C797.697510,309.665497 797.917236,308.581604 799.728333,306.747437 
	C807.451599,298.925873 815.147888,291.069122 822.594727,282.986359 
	C827.257935,277.924927 827.876892,273.190277 825.300293,268.405609 
	C822.282532,262.801910 815.914307,259.261536 810.029907,260.041412 
	C805.883606,260.590912 802.614746,262.869629 799.768799,265.768127 
	C794.400696,271.235291 789.092712,276.761444 783.513306,282.515594 
z"/>
<path fill="#050505" opacity="1.000000" stroke="none" 
	d="
M881.608398,604.665039 
	C889.009888,589.985779 901.371216,582.516541 914.817566,584.374817 
	C930.950073,586.604309 941.905823,596.271301 944.478943,611.587585 
	C948.244019,633.999207 931.237793,658.706421 902.632812,651.180603 
	C899.732056,650.417358 899.098572,649.453979 899.818970,646.473938 
	C902.978455,633.404236 905.868774,620.268860 908.764404,607.136902 
	C909.065674,605.770447 910.156067,603.978943 908.975342,602.944031 
	C907.657837,601.789246 905.771606,602.810364 904.283813,603.330322 
	C895.171265,606.514832 889.669922,620.049438 893.760315,630.356384 
	C895.281921,634.190552 894.834290,636.125183 891.060852,637.375916 
	C890.910095,637.425842 890.795715,637.576233 890.652283,637.658875 
	C882.013794,642.633850 880.357483,641.902893 878.169434,631.801697 
	C876.158203,622.516968 877.960144,613.643677 881.608398,604.665039 
z"/>
<path fill="#040404" opacity="1.000000" stroke="none" 
	d="
M335.042419,291.043396 
	C324.186737,301.243988 312.192566,306.680756 297.510529,301.907867 
	C284.485229,297.673553 275.048828,284.308990 274.993347,270.730103 
	C274.935028,256.456787 285.165344,242.370834 299.283936,237.284882 
	C311.822052,232.768265 325.849335,236.914307 334.883453,247.516068 
	C337.100281,250.117554 336.976318,251.539810 334.400482,253.826996 
	C324.311584,262.785248 314.528320,272.087250 304.461609,281.071167 
	C301.299530,283.893127 302.085358,284.943939 305.597931,286.090118 
	C315.332428,289.266327 328.349396,281.085724 330.770538,269.634521 
	C331.507111,266.150970 332.682068,265.100861 335.906036,265.862274 
	C336.384918,265.975372 336.901489,265.929016 337.400665,265.955780 
	C347.205658,266.482025 347.890442,267.473328 344.592041,276.764282 
	C342.663116,282.197723 339.349396,286.749298 335.042419,291.043396 
z"/>
<path fill="#040404" opacity="1.000000" stroke="none" 
	d="
M384.786316,824.098633 
	C393.547913,826.349121 401.033356,830.163025 407.271698,836.192932 
	C418.604034,847.146912 420.899994,862.483521 413.286804,875.847107 
	C405.420532,889.654968 391.093994,895.788208 375.922638,891.842834 
	C353.066437,885.898987 342.702179,863.059448 353.643524,843.073914 
	C355.478912,839.721313 356.809204,838.652893 360.647736,840.849854 
	C372.173645,847.446594 384.045258,853.436157 395.674133,859.857971 
	C399.167267,861.786926 400.181152,861.219849 400.099182,857.232727 
	C399.897308,847.413330 389.273743,838.068298 377.796295,838.932983 
	C372.754150,839.312866 371.359619,837.792358 370.366150,833.359985 
	C368.354462,824.384766 368.651062,823.676697 377.912872,823.509277 
	C380.062958,823.470459 382.220673,823.852661 384.786316,824.098633 
z"/>
<path fill="#040404" opacity="1.000000" stroke="none" 
	d="
M230.962234,669.965698 
	C218.414825,680.807556 202.144562,682.380920 189.685501,674.179016 
	C177.120026,665.906982 170.569260,648.031677 175.193665,633.701111 
	C179.006912,621.884399 187.859039,615.451111 199.409882,612.109253 
	C202.330322,611.264343 203.106934,612.775024 203.804535,615.076965 
	C207.798782,628.256775 211.864227,641.414978 215.919586,654.576233 
	C216.255112,655.665100 216.695145,656.721863 217.097778,657.824097 
	C229.266174,651.367310 225.955688,633.243713 217.514862,626.390747 
	C213.803467,623.377563 213.772675,621.454834 216.131424,617.729248 
	C221.284378,609.590210 222.144333,609.329041 229.093552,616.267517 
	C240.304916,627.461548 247.088760,654.408997 230.962234,669.965698 
z"/>
<path fill="#040404" opacity="1.000000" stroke="none" 
	d="
M707.271301,836.038452 
	C722.651611,835.257019 733.523865,841.646851 739.780090,855.096008 
	C745.462585,867.311890 744.337830,879.297485 735.437561,889.598511 
	C725.814209,900.736450 713.444092,905.632141 698.774597,901.957520 
	C687.765686,899.199829 681.153992,891.337708 676.926392,881.105286 
	C675.702881,878.143738 677.611145,877.809021 679.389465,876.992798 
	C691.902710,871.249878 704.354797,865.369080 716.948120,859.808167 
	C720.848999,858.085632 719.847534,856.883057 717.318542,854.965210 
	C709.097229,848.730347 694.330933,852.260620 688.305786,862.534546 
	C686.223022,866.085938 684.514282,866.428162 681.462585,864.589722 
	C681.179688,864.419250 680.870117,864.288696 680.563843,864.161865 
	C671.411255,860.375854 671.007080,859.235474 677.480408,851.369202 
	C685.041077,842.181763 695.250488,837.746094 707.271301,836.038452 
z"/>
<path fill="#040404" opacity="1.000000" stroke="none" 
	d="
M248.638092,413.566833 
	C234.112106,438.652679 205.956192,435.689880 192.919449,419.011566 
	C183.583679,407.068024 184.191956,393.982086 190.719299,380.962311 
	C197.143997,368.147308 207.344025,360.415344 222.073135,361.155609 
	C235.536453,361.832306 245.838623,368.423157 251.381622,381.075836 
	C256.227020,392.136169 254.121002,402.878632 248.638092,413.566833 
z"/>
<path fill="#040404" opacity="1.000000" stroke="none" 
	d="
M181.717773,470.483093 
	C186.943405,468.849182 191.912262,468.742615 196.925797,469.078552 
	C199.990204,469.283875 201.565765,470.186737 201.136063,473.917358 
	C199.708115,486.315186 198.680954,498.759186 197.497589,511.185242 
	C197.279602,513.473999 196.661484,515.753052 197.269608,518.071350 
	C204.503464,517.121582 209.517242,512.090759 210.964844,504.316986 
	C212.127472,498.073547 211.760223,492.061981 208.107803,486.576538 
	C207.504761,485.670898 206.522385,484.783356 208.052414,483.681641 
	C211.156738,481.446381 214.188873,479.109314 217.218338,476.772156 
	C219.328888,475.143982 219.832840,477.370209 220.550888,478.305145 
	C224.992310,484.087982 226.533722,490.855774 226.573700,497.975311 
	C226.601746,502.971832 225.966187,507.925964 224.480179,512.741821 
	C218.772156,531.240417 202.624969,540.494751 184.049759,535.889954 
	C167.096802,531.687378 156.676514,514.125732 160.397720,495.812439 
	C162.856186,483.713440 169.375900,474.883728 181.717773,470.483093 
z"/>
<path fill="#040404" opacity="1.000000" stroke="none" 
	d="
M643.913452,212.976089 
	C638.771606,205.516678 639.080872,198.243912 643.773193,191.256531 
	C648.863220,183.676773 656.629639,183.059448 664.709229,184.376663 
	C671.615417,185.502579 678.122314,188.149475 684.601379,190.686066 
	C687.901062,191.977905 688.725830,190.690308 688.890686,187.849258 
	C689.170532,183.025620 687.001282,179.454605 682.940613,177.136963 
	C676.361084,173.381607 669.244751,172.013962 661.803223,173.623917 
	C659.098022,174.209183 658.070068,173.603699 658.056030,170.931595 
	C658.050781,169.937424 657.918640,168.938614 657.778442,167.951294 
	C656.449036,158.586517 654.490051,159.173660 665.776306,158.520798 
	C676.267151,157.913925 686.237915,160.681305 695.230347,166.247559 
	C705.654236,172.699844 709.985046,182.742523 706.505127,194.518799 
	C702.843323,206.910782 698.157227,218.998077 694.047546,231.261658 
	C693.303345,233.482376 692.190491,233.599121 690.353394,232.898163 
	C687.720642,231.893616 685.112488,230.702667 682.381470,230.104630 
	C677.813049,229.104202 675.368164,227.289688 678.967163,221.724396 
	C664.807251,226.932327 653.638062,223.168839 643.913452,212.976089 
z"/>
<path fill="#040404" opacity="1.000000" stroke="none" 
	d="
M774.567505,789.626587 
	C782.051819,783.926636 782.058838,783.921326 787.450500,791.078918 
	C798.564331,805.832703 809.669800,820.592712 820.924622,835.544006 
	C817.231812,838.354980 813.521423,840.905029 810.144470,843.838928 
	C807.570740,846.075073 805.771545,846.270874 804.128967,843.028625 
	C803.772461,842.324890 803.143860,841.759033 802.318420,840.726807 
	C800.254333,850.500610 794.921692,857.357788 786.851318,862.156494 
	C776.364563,868.392212 765.212524,867.552063 756.676575,858.839966 
	C746.755737,848.714355 739.329102,836.521118 730.592285,825.401917 
	C729.720459,824.292236 729.498535,823.377747 730.878845,822.544250 
	C731.160645,822.374146 731.385864,822.113159 731.655579,821.919739 
	C735.827515,818.928772 739.947144,813.743530 744.193726,813.636658 
	C747.710144,813.548157 750.163147,820.421387 753.102722,824.195190 
	C757.194153,829.447754 761.070618,834.867981 765.178101,840.107483 
	C771.020996,847.560547 777.090820,848.945312 783.670349,844.512939 
	C791.041077,839.547546 793.207520,831.655151 788.395386,824.128235 
	C783.835205,816.995300 778.418579,810.410034 773.378723,803.583740 
	C773.082397,803.182373 772.790771,802.777466 772.491394,802.378296 
	C767.112854,795.205872 767.112671,795.205994 774.567505,789.626587 
z"/>
<path fill="#040404" opacity="1.000000" stroke="none" 
	d="
M887.772583,673.747437 
	C889.685425,671.198547 891.219604,668.783875 893.138916,666.728821 
	C897.880615,661.651672 903.554688,658.964661 910.609314,661.187988 
	C917.867310,663.475525 922.951538,668.292969 923.871643,675.899536 
	C925.873779,692.451233 918.412720,705.485596 907.363953,716.947632 
	C905.982178,718.381104 904.846558,718.238159 903.783813,716.631042 
	C903.692749,716.493408 903.566711,716.378906 903.456543,716.253967 
	C901.143188,713.632263 897.668579,711.335449 896.820129,708.303711 
	C895.833435,704.778259 900.804321,703.487488 902.588623,700.690002 
	C905.646301,695.895813 908.727417,691.158264 909.375122,685.361084 
	C909.657043,682.838257 909.503784,680.184204 906.645020,679.018982 
	C903.775085,677.849182 901.843018,679.570740 900.323669,681.692322 
	C896.548462,686.963806 893.021240,692.418884 889.115234,697.589417 
	C883.364380,705.202209 877.034973,707.565430 869.764221,705.218140 
	C861.367798,702.507507 856.639465,696.191223 856.779968,686.690857 
	C857.015503,670.763000 864.448486,658.118469 875.642517,647.346558 
	C877.442017,645.614929 878.772766,645.528809 880.447937,647.675476 
	C882.792175,650.679504 885.489258,653.408142 888.113281,656.341614 
	C881.209412,661.740295 876.000671,668.110413 872.969299,676.094238 
	C872.266296,677.945801 871.694214,679.890564 871.401184,681.843384 
	C871.031677,684.306580 871.709900,686.572266 874.180237,687.694702 
	C876.610901,688.799194 878.450134,687.417542 879.754272,685.603455 
	C882.467773,681.828796 884.976318,677.906799 887.772583,673.747437 
z"/>
<path fill="#050505" opacity="1.000000" stroke="none" 
	d="
M872.206421,437.782501 
	C868.154114,428.075592 866.390503,418.363190 867.073303,408.212616 
	C867.283264,405.091217 868.177002,403.246796 871.874939,403.989899 
	C875.125183,404.643036 879.293152,403.800354 881.526062,405.559723 
	C883.654785,407.237000 881.677063,411.421143 881.717468,414.508850 
	C881.808167,421.438629 882.932373,428.091125 886.291565,434.211029 
	C887.715393,436.804871 889.737427,439.040588 893.086243,437.905304 
	C896.331665,436.805023 896.139160,433.797089 895.816467,431.151703 
	C895.132263,425.541229 894.138367,419.969116 893.413330,414.362915 
	C892.107178,404.263367 895.430603,397.192810 902.910034,393.872101 
	C911.434692,390.087311 919.652527,391.885742 926.127502,399.716003 
	C935.038818,410.492462 937.991760,423.246002 937.263062,437.001404 
	C937.236694,437.499084 937.338623,438.202148 937.059082,438.457825 
	C933.234192,441.956665 929.146118,438.205505 925.165222,438.798035 
	C923.198730,439.090759 922.282471,438.142029 922.638794,435.778564 
	C923.628296,429.214630 922.452820,422.865662 919.974060,416.746399 
	C919.159424,414.735321 918.138672,412.830383 916.544189,411.314026 
	C914.977539,409.824127 913.148682,409.228424 911.049377,410.031464 
	C908.977234,410.824097 908.473083,412.711060 908.626465,414.534973 
	C909.085938,419.998474 909.811829,425.439117 910.394836,430.892822 
	C910.642151,433.206146 910.960266,435.530151 910.955078,437.848694 
	C910.939880,444.598083 908.780579,450.295471 902.390259,453.562561 
	C895.532288,457.068787 888.894287,456.547546 882.702087,451.964172 
	C877.894226,448.405518 874.831238,443.471405 872.206421,437.782501 
z"/>
<path fill="#040404" opacity="1.000000" stroke="none" 
	d="
M877.869202,331.120544 
	C900.147766,332.446381 913.790039,355.487762 912.091492,370.738312 
	C911.980957,371.730743 911.987976,372.743164 911.798889,373.718903 
	C909.811829,383.974976 907.715027,384.924072 899.282166,379.425323 
	C898.028381,378.607758 896.815247,377.714294 895.504211,377.001434 
	C893.821899,376.086731 893.312866,375.209412 894.086487,373.111633 
	C897.960754,362.606415 893.393677,352.624359 883.755981,350.004242 
	C874.205994,347.407959 862.805908,354.247589 860.579834,363.909119 
	C858.609863,372.459137 864.333069,381.740875 873.264771,383.455353 
	C876.740479,384.122559 877.525879,385.376740 877.221558,388.528107 
	C876.950562,391.333557 876.975708,394.203094 877.221741,397.013580 
	C877.508911,400.294220 876.167114,400.922699 873.162292,400.595886 
	C860.117981,399.177246 848.756653,388.136597 845.026978,373.008667 
	C839.600037,350.996399 854.436523,331.807892 877.869202,331.120544 
z"/>
<path fill="#040404" opacity="1.000000" stroke="none" 
	d="
M175.280838,546.863403 
	C190.725220,551.602783 205.749023,556.350464 220.860046,560.802124 
	C223.825684,561.675781 225.002625,563.079285 224.919983,565.968384 
	C224.886795,567.127930 224.781891,568.387756 225.159515,569.440674 
	C228.606506,579.051636 223.599411,583.328857 215.528763,587.322754 
	C199.777664,595.117493 184.453979,603.799438 169.156326,612.472107 
	C164.809067,614.936646 164.260223,613.225952 164.161163,609.555786 
	C164.134262,608.558594 164.257996,607.484741 163.936981,606.579285 
	C160.641632,597.284668 165.541290,593.224792 173.393860,589.686340 
	C183.797287,584.998535 193.662399,579.116089 204.654648,573.270752 
	C196.858780,570.862183 189.863129,568.698364 182.865784,566.539978 
	C177.953232,565.024719 172.986435,563.663818 168.143463,561.952209 
	C165.106064,560.878662 160.389435,561.361572 159.401031,558.303345 
	C157.851547,553.509033 157.856339,548.147705 157.665756,543.009338 
	C157.584763,540.825073 159.644058,541.997681 160.654022,542.295776 
	C165.424072,543.703613 170.149460,545.262756 175.280838,546.863403 
z"/>
<path fill="#040404" opacity="1.000000" stroke="none" 
	d="
M159.947754,429.105286 
	C184.033661,435.131378 207.690491,441.164246 231.407837,446.948975 
	C235.154404,447.862793 236.108429,449.261505 234.873810,452.859650 
	C233.429337,457.069366 233.697296,463.123199 230.868408,465.258636 
	C227.857605,467.531403 222.507568,464.081543 218.215210,463.025818 
	C195.154510,457.353943 172.130722,451.531921 149.067581,445.870239 
	C146.034714,445.125732 144.439178,444.298370 145.834671,440.712311 
	C147.028351,437.644806 147.723175,434.323730 148.197693,431.050903 
	C148.784424,427.004028 150.585999,426.115356 154.226349,427.719452 
	C155.870422,428.443878 157.760254,428.610504 159.947754,429.105286 
z"/>
<path fill="#040404" opacity="1.000000" stroke="none" 
	d="
M647.378296,903.966309 
	C650.444885,898.824158 649.962158,893.762634 648.614380,888.665100 
	C646.365601,880.159851 644.176270,871.636536 641.741150,863.184387 
	C641.019470,860.679504 640.753235,859.320557 643.984619,858.716736 
	C648.849304,857.807800 654.591736,854.120483 658.140808,855.701172 
	C661.862305,857.358582 661.446167,864.474060 662.775391,869.204285 
	C666.861389,883.744446 670.581543,898.387329 674.637939,912.936096 
	C675.546631,916.195251 675.213562,917.902100 671.500854,918.315369 
	C669.384216,918.550903 667.342957,919.433411 665.257507,919.986084 
	C658.572021,921.758057 658.570190,921.751160 656.113586,914.747559 
	C652.274780,920.952148 647.169373,925.036621 640.640869,927.476929 
	C637.828064,928.528320 636.721252,927.856934 636.182312,925.177734 
	C635.920959,923.878296 635.489258,922.614075 635.166504,921.325867 
	C634.442322,918.434814 632.669128,915.266968 633.317261,912.719116 
	C634.006165,910.010864 638.238708,911.020569 640.654602,909.607727 
	C643.126465,908.162048 645.477539,906.672180 647.378296,903.966309 
z"/>
<path fill="#040404" opacity="1.000000" stroke="none" 
	d="
M609.476746,209.982117 
	C607.614990,209.662338 606.152649,209.339066 604.676147,209.105942 
	C594.499451,207.499146 594.608887,207.524750 596.364014,197.613892 
	C599.318848,180.929352 602.220093,164.233536 604.891602,147.502182 
	C605.394653,144.351608 606.407715,143.489471 609.367554,144.315475 
	C611.277466,144.848480 613.292786,144.994308 615.251831,145.361877 
	C622.878296,146.792770 622.876953,146.799942 622.319946,154.435196 
	C628.174744,150.000198 634.660095,148.614227 641.700928,149.022537 
	C644.625488,149.192139 645.576782,150.311554 644.822815,153.054596 
	C644.646606,153.695496 644.478149,154.342361 644.367798,154.996887 
	C643.787720,158.437485 644.218384,162.591293 642.396240,165.135178 
	C640.357178,167.981934 636.330994,164.853607 633.087036,165.242691 
	C625.689453,166.129959 620.694397,170.069977 619.047302,177.944992 
	C617.042175,187.531616 615.517578,197.223282 613.983826,206.900986 
	C613.559143,209.580612 612.708618,210.905304 609.476746,209.982117 
z"/>
<path fill="#040404" opacity="1.000000" stroke="none" 
	d="
M352.410034,254.641266 
	C344.255890,242.066132 336.383209,229.738220 328.338104,217.523895 
	C326.666656,214.986237 326.102753,213.304382 329.428070,211.862427 
	C331.082306,211.145111 332.520294,209.929459 334.056824,208.940338 
	C340.865143,204.557541 340.865234,204.557693 345.740265,210.599609 
	C346.978729,203.023361 351.127441,197.500229 356.997620,193.059509 
	C358.681641,191.785583 359.829285,191.658691 360.867493,193.697861 
	C361.392609,194.729202 362.118866,195.657394 362.744019,196.638672 
	C364.529388,199.441086 367.493317,202.137970 367.763885,205.081329 
	C368.042938,208.116943 363.411163,208.781250 361.311127,211.000259 
	C355.959503,216.655060 355.079865,223.528015 359.676849,231.093399 
	C364.593781,239.185287 369.753204,247.138763 375.072083,254.972488 
	C376.851227,257.592865 376.523590,258.740784 373.852081,260.233459 
	C369.654724,262.578644 365.285889,267.851166 361.738525,267.274811 
	C357.664948,266.612976 356.081177,259.760254 353.153717,255.779495 
	C352.957123,255.512207 352.803772,255.213120 352.410034,254.641266 
z"/>
<path fill="#050505" opacity="1.000000" stroke="none" 
	d="
M865.020142,317.985840 
	C853.284668,326.769958 841.798767,335.296387 830.457642,344.011322 
	C828.097656,345.824829 826.763367,345.989655 825.154419,343.269531 
	C822.651794,339.038605 816.671692,335.285889 817.407532,331.272491 
	C818.057007,327.730286 824.243713,325.144745 828.075012,322.255463 
	C840.291992,313.042328 852.602722,303.952454 864.748169,294.646454 
	C867.114746,292.833160 868.400513,292.561615 870.139648,295.300903 
	C872.272766,298.660736 874.723694,301.848938 877.304871,304.883698 
	C879.092896,306.985901 878.543091,308.018188 876.504639,309.423920 
	C872.674194,312.065521 869.038025,314.988861 865.020142,317.985840 
z"/>
<path fill="#040404" opacity="1.000000" stroke="none" 
	d="
M893.682251,730.367798 
	C900.943481,734.711853 900.943420,734.711792 896.821777,741.554932 
	C891.254456,750.797913 891.260498,750.788025 882.059082,745.252563 
	C867.978271,736.781677 853.919678,728.273071 839.775330,719.909424 
	C836.976807,718.254639 835.342590,716.969788 838.002197,713.731201 
	C841.008423,710.070496 842.010986,703.227112 846.026733,702.529907 
	C849.529358,701.921814 853.971191,706.514832 857.949097,708.891724 
	C869.775208,715.957886 881.577087,723.064514 893.682251,730.367798 
z"/>
<path fill="#050505" opacity="1.000000" stroke="none" 
	d="
M466.065552,197.789444 
	C471.771484,201.745758 473.803497,207.195908 471.849823,212.531143 
	C470.082367,217.358002 464.850311,220.526260 459.532776,219.989822 
	C454.406891,219.472717 450.288879,215.447754 449.282745,209.885086 
	C447.724030,201.267303 456.895050,194.055222 466.065552,197.789444 
z"/>
<path fill="#050505" opacity="1.000000" stroke="none" 
	d="
M565.145630,882.573242 
	C565.166077,873.834290 569.852539,868.743958 577.210205,869.008850 
	C584.119629,869.257568 588.801514,874.920715 588.169250,882.264648 
	C587.726685,887.405029 583.769836,891.423645 578.528198,892.056213 
	C571.715454,892.878357 567.664246,890.119995 565.145630,882.573242 
z"/>
<path fill="#050505" opacity="1.000000" stroke="none" 
	d="
M899.182983,293.777832 
	C896.224487,298.581238 892.235718,300.439575 887.146606,299.032776 
	C882.004761,297.611450 879.176758,293.741638 878.176392,288.739502 
	C877.365112,284.682831 878.910706,281.238739 882.365906,278.805267 
	C886.021057,276.230957 889.823364,276.318420 893.575439,278.483032 
	C898.824036,281.510956 900.870361,286.967255 899.182983,293.777832 
z"/>
<path fill="#060606" opacity="1.000000" stroke="none" 
	d="
M914.645996,741.380249 
	C920.183105,742.588989 923.117981,745.798889 923.617615,751.036743 
	C924.046997,755.538025 920.612793,761.114075 916.367004,763.191772 
	C911.133972,765.752563 905.072510,763.456238 902.725586,758.023987 
	C900.236267,752.262146 903.785706,744.247192 909.890991,742.078613 
	C911.267578,741.589661 912.805176,741.553650 914.645996,741.380249 
z"/>
<path fill="#FCFCFC" opacity="1.000000" stroke="none" 
	d="
M226.013611,703.760132 
	C238.108429,700.368042 247.639801,703.493225 254.689606,713.485352 
	C258.406860,718.754028 261.359711,724.556396 264.821686,730.013794 
	C266.139404,732.091003 265.136414,732.812683 263.518860,733.754700 
	C250.195969,741.513794 236.902191,749.322876 223.605469,757.126831 
	C222.492661,757.779907 221.245667,759.022705 220.291351,757.232361 
	C216.023148,749.225037 209.862915,742.125000 208.005859,732.953491 
	C205.359650,719.884399 211.458023,710.007568 226.013611,703.760132 
z"/>
<path fill="#FCFCFC" opacity="1.000000" stroke="none" 
	d="
M953.781006,513.105225 
	C956.360657,512.991272 956.143494,514.510803 956.142212,515.823303 
	C956.135559,522.484131 956.455505,529.168213 956.013916,535.800964 
	C955.113342,549.327271 945.074768,558.493103 931.263428,558.891968 
	C917.237305,559.296997 907.046997,551.014526 904.868958,537.573059 
	C903.741089,530.612732 904.440369,523.601562 904.007324,516.631042 
	C903.800964,513.309265 905.870117,513.823486 907.826355,513.794434 
	C922.984131,513.569092 938.141785,513.336975 953.781006,513.105225 
z"/>
<path fill="#FCFCFC" opacity="1.000000" stroke="none" 
	d="
M844.492432,787.796387 
	C834.640747,792.395020 824.993958,788.924561 821.509888,779.834167 
	C818.268738,771.377258 824.283203,760.058411 833.528076,757.216797 
	C842.059570,754.594482 851.562317,760.002441 853.442749,768.898010 
	C855.179077,777.111450 850.965759,782.873779 844.492432,787.796387 
z"/>
<path fill="#FCFCFC" opacity="1.000000" stroke="none" 
	d="
M301.165131,820.209900 
	C299.604034,811.915161 302.861053,805.874573 308.665527,800.973877 
	C315.076813,795.561035 323.285950,795.628662 329.566559,800.946838 
	C335.978394,806.376160 337.446625,814.190369 333.190521,821.509644 
	C329.391846,828.042175 324.163300,832.648865 316.031525,832.134033 
	C308.592407,831.663086 303.999329,827.257812 301.165131,820.209900 
z"/>
<path fill="#FCFCFC" opacity="1.000000" stroke="none" 
	d="
M271.315979,314.672852 
	C278.886292,322.980896 278.837006,332.206451 271.449921,339.122589 
	C264.586090,345.548859 253.641693,344.337524 246.171768,336.324768 
	C239.664764,329.344910 240.110306,319.324066 247.217957,312.795837 
	C253.684998,306.856018 262.251953,307.439819 271.315979,314.672852 
z"/>
<path fill="#FFFFFF" opacity="1.000000" stroke="none" 
	d="
M228.357361,323.684235 
	C228.602036,323.914795 228.659592,324.304840 228.717163,324.694855 
	C228.481125,324.694672 228.245102,324.694519 227.913055,324.440063 
	C227.817032,324.185730 228.170258,323.843689 228.357361,323.684235 
z"/>
<path fill="#FBFBFB" opacity="1.000000" stroke="none" 
	d="
M756.091431,242.299927 
	C747.101746,247.231339 738.443176,245.599350 733.210266,238.282059 
	C728.291321,231.403717 729.942017,221.273346 737.103455,214.389297 
	C743.215027,208.514435 751.990112,208.220337 758.854065,213.660248 
	C764.557617,218.180527 766.260986,225.305862 763.359680,232.523056 
	C761.843933,236.293457 759.590210,239.525803 756.091431,242.299927 
z"/>
<path fill="#F7F7F7" opacity="1.000000" stroke="none" 
	d="
M925.469177,631.522400 
	C924.537048,632.269653 923.894470,632.796997 923.202271,633.248047 
	C920.623535,634.928162 917.197510,636.612915 914.860962,635.300293 
	C912.264832,633.841858 914.847351,630.483459 915.289001,628.083618 
	C916.546631,621.249878 918.515686,614.548279 919.811279,607.720032 
	C920.412292,604.552368 921.489075,604.793274 923.677429,606.123108 
	C931.977722,611.166626 932.931885,622.471252 925.469177,631.522400 
z"/>
<path fill="#F8F8F8" opacity="1.000000" stroke="none" 
	d="
M311.163849,251.384216 
	C313.439423,252.140686 315.267151,252.885193 317.119202,254.643814 
	C309.969940,261.246216 302.801666,267.778534 295.749023,274.433411 
	C293.658936,276.405579 293.066742,274.941925 292.294342,273.352295 
	C287.754608,264.009460 295.478149,251.682098 306.334625,251.015945 
	C307.807861,250.925552 309.301025,251.159317 311.163849,251.384216 
z"/>
<path fill="#F8F8F8" opacity="1.000000" stroke="none" 
	d="
M384.496460,877.906372 
	C370.997528,878.062622 363.615723,869.398010 366.536133,856.573669 
	C375.824219,861.541931 384.969543,866.433777 394.231110,871.387817 
	C392.078766,875.259644 388.633179,876.759094 384.496460,877.906372 
z"/>
<path fill="#F7F7F7" opacity="1.000000" stroke="none" 
	d="
M191.460754,655.400757 
	C186.559616,646.037781 187.640610,638.080322 194.156235,633.181152 
	C196.073639,631.739380 197.294342,630.992188 198.218140,634.295166 
	C200.492783,642.428040 203.064926,650.482239 205.708298,658.505188 
	C206.828293,661.904480 205.190918,662.194092 202.599030,661.876831 
	C198.106262,661.326843 194.365326,659.447693 191.460754,655.400757 
z"/>
<path fill="#F8F8F8" opacity="1.000000" stroke="none" 
	d="
M725.813843,870.184814 
	C726.082031,879.246216 722.087219,885.093201 714.269470,887.628784 
	C707.566589,889.802673 701.380615,887.645264 696.582458,881.149353 
	C705.640930,876.971863 714.614380,872.846375 723.572388,868.687805 
	C724.825928,868.105835 725.384644,868.641724 725.813843,870.184814 
z"/>
<path fill="#FCFCFC" opacity="1.000000" stroke="none" 
	d="
M208.414078,408.658630 
	C200.761703,401.159882 200.099930,392.176788 206.389923,384.862579 
	C212.217728,378.085876 222.823364,377.702515 231.251907,383.963928 
	C238.468033,389.324646 240.024292,398.351837 235.071808,406.121796 
	C231.109375,412.338470 223.789612,414.910187 216.257263,412.627686 
	C213.549667,411.807220 210.996307,410.587341 208.414078,408.658630 
z"/>
<path fill="#F8F8F8" opacity="1.000000" stroke="none" 
	d="
M188.799438,488.259521 
	C187.885147,497.276428 186.862244,505.868073 186.204819,514.487610 
	C185.971817,517.542297 184.955383,517.673340 182.583389,516.620117 
	C176.515839,513.926086 173.025238,507.008026 174.107635,499.577454 
	C175.106949,492.717255 180.833359,486.893158 187.114197,486.253326 
	C188.446686,486.117584 188.943024,486.576508 188.799438,488.259521 
z"/>
<path fill="#F9F9F9" opacity="1.000000" stroke="none" 
	d="
M665.238892,196.648300 
	C671.607605,196.833618 676.777344,199.769165 682.328735,201.361832 
	C683.909424,201.815323 684.133423,202.715958 683.678711,204.365372 
	C682.296631,209.378922 678.707153,212.522461 673.383484,212.971771 
	C667.602661,213.459641 660.978943,210.471756 659.152649,206.552383 
	C657.140381,202.233902 659.485840,198.143219 665.238892,196.648300 
z"/>
</svg>